# xmcd
#
# Track frame offsets: 
#        150
#        10429
#        23930
#        34594
#        45023
#        56017
#        69724
#        78151
#        96366
#        106172
#        115935
#        124440
#        139810
#        152012
#        162365
#        174517
#        184998
#        197658
#        211381
#        225664
#        238930
#        254513
#
# Disc length: 3591 seconds
#
# Revision: 1
# Processed by: cddbd v1.5.2PL0 Copyright (c) Steve Scherf et al.
# Submitted via: ExactAudioCopy v0.99pb5
#
DISCID=320e0516
DTITLE=Various Artist - The Roots Of Nick Cave
DYEAR=2009
DGENRE=Blues
TTITLE0=Carl Perkins - Blue Suede Shoes
TTITLE1=Big Joe Turner - Shakre, Rattle And Roll
TTITLE2=Little Richard - Keep A Knockin'
TTITLE3=Gene Vincent And His Blue Caps - Cat Man
TTITLE4=Screamin' Jay Hawkins - I Put A Spell On you
TTITLE5=John Lee Hooker - I'm Gonna Kill That Woman
TTITLE6=Leadbelly - Bottle Up And Go
TTITLE7=Ella Jenkins - Wade In The Water
TTITLE8=The Alabama Singers - Jesus Met The Woman At The Well
TTITLE9=Odetta - Another Man Done Gone
TTITLE10=Leadbelly - Black Betty
TTITLE11=Harry Belafonte - Mourning Song
TTITLE12=Little Willie John - Fever
TTITLE13=Charlie Gracie - 99 Ways
TTITLE14=Hank Williams - Lost Highway
TTITLE15=Roy Rogers - The Streets Of Laredo
TTITLE16=Hobart Smith And Texas Gladden - Down In The Willow Garden
TTITLE17=Ernest Phipps And His Holiness Singers - Shine On Me
TTITLE18=Chubby Parker - King Kong Kitchie Kitchie Ki-Me-O
TTITLE19=Mississippi John Hurt - Stack O' Lee
TTITLE20=Dick Justice - Henry Lee
TTITLE21=Blind Willie Johnson - John The Relevator
EXTD=The Rock 'n' Roll, Blues and tradiotional folk roots of Nick Cave
EXTD=, One of the greatest contemporary songwriters
EXTT0=
EXTT1=
EXTT2=
EXTT3=
EXTT4=
EXTT5=
EXTT6=
EXTT7=
EXTT8=
EXTT9=
EXTT10=
EXTT11=
EXTT12=
EXTT13=
EXTT14=
EXTT15=
EXTT16=
EXTT17=
EXTT18=
EXTT19=
EXTT20=
EXTT21=
PLAYORDER=
